<?xml version="1.0" encoding="UTF-8" standalone="no"?>
<!-- Created with Inkscape (http://www.inkscape.org/) -->

<svg
   width="23.717358mm"
   height="23.111679mm"
   viewBox="0 0 89.640409 87.351229"
   version="1.1"
   id="svg1"
   xml:space="preserve"
   inkscape:export-filename="hdj_hp.svg"
   inkscape:export-xdpi="96"
   inkscape:export-ydpi="96"
   xmlns:inkscape="http://www.inkscape.org/namespaces/inkscape"
   xmlns:sodipodi="http://sodipodi.sourceforge.net/DTD/sodipodi-0.dtd"
   xmlns="http://www.w3.org/2000/svg"
   xmlns:svg="http://www.w3.org/2000/svg"><sodipodi:namedview
     id="namedview1"
     pagecolor="#000000"
     bordercolor="#000000"
     borderopacity="0.25"
     inkscape:showpageshadow="2"
     inkscape:pageopacity="0.0"
     inkscape:pagecheckerboard="true"
     inkscape:deskcolor="#d1d1d1"
     inkscape:document-units="mm"
     inkscape:clip-to-page="false"><inkscape:page
       x="0"
       y="0"
       width="89.640411"
       height="87.351227"
       id="page2"
       margin="0"
       bleed="0" /></sodipodi:namedview><defs
     id="defs1" /><g
     inkscape:groupmode="layer"
     id="layer2"
     inkscape:label="Layer 2"
     transform="translate(-260.74078,-442.15367)"
     style="display:inline"><path
       fill="#000000"
       fill-opacity="1"
       stroke-linejoin="round"
       d="m 304.97124,442.15367 h 1.17949 c 0,0 44.23046,0 44.23046,47.17917 0,21.23063 -4.71791,28.3075 -7.07687,30.66646 0,0 -7.07688,4.71792 -4.71815,-1.76921 0,-5.45816 2.35919,-17.10245 2.35919,-17.10245 0,0 2.35896,0 2.35896,-11.7948 0,-14.15375 -9.43583,-38.92281 -35.38438,-38.92281 h -4.71791 c -25.94854,0 -35.38438,24.76906 -35.38438,38.92281 0,11.7948 2.35896,11.7948 2.35896,11.7948 0,0 2.3592,11.64429 2.3592,17.10245 2.35872,6.48713 -4.71816,1.76921 -4.71816,1.76921 -2.35896,-2.35896 -7.07687,-9.43583 -7.07687,-30.66646 0,-47.17917 44.23046,-47.17917 44.23046,-47.17917 z m -26.41254,47.56958 c 3.87034,-0.54397 7.44888,2.15279 7.99285,6.02313 l 3.61134,25.6959 c 0.54397,3.87034 -2.15256,7.44888 -6.02314,7.99286 -3.87034,0.54397 -8.62836,-2.15255 -9.17233,-6.02313 l -3.61133,-25.6959 c -0.54397,-3.87034 3.33226,-7.44889 7.20261,-7.99286 z m 54.00457,0 c 3.87035,0.54397 7.74659,4.12252 7.20262,7.99286 l -3.61134,25.6959 c -0.54397,3.87058 -5.30199,6.5671 -9.17233,6.02313 -3.87058,-0.54398 -6.56711,-4.12252 -6.02314,-7.99286 l 3.61134,-25.6959 c 0.54397,-3.87034 4.12251,-6.5671 7.99285,-6.02313 z"
       id="path1"
       style="fill:#ffffff;stroke-width:2.35895"
       inkscape:label="path1" /></g></svg>
